<?xml version="1.0" encoding="iso-8859-1"?>
<!-- Generator: Adobe Illustrator 19.0.0, SVG Export Plug-In . SVG Version: 6.00 Build 0)  -->
<svg version="1.1" id="Layer_1" xmlns="http://www.w3.org/2000/svg" xmlns:xlink="http://www.w3.org/1999/xlink" x="0px" y="0px"
	 viewBox="0 0 511.965 511.965" style="enable-background:new 0 0 511.965 511.965;" xml:space="preserve">
<g>
	<path style="fill:#656D78;" d="M74.04,511.965c-1.719,0-3.453-0.406-5.062-1.281c-5.219-2.781-7.172-9.25-4.375-14.436
		l149.71-277.353c2.797-5.188,9.297-7.125,14.499-4.344c5.219,2.797,7.172,9.265,4.359,14.452L83.476,506.34
		C81.539,509.934,77.852,511.965,74.04,511.965z"/>
	<path style="fill:#656D78;" d="M373.712,511.965c-3.812,0-7.5-2.031-9.438-5.625L214.313,229.003
		c-2.797-5.187-0.859-11.655,4.359-14.452c5.203-2.781,11.702-0.844,14.499,4.344l149.962,277.353
		c2.812,5.186,0.859,11.654-4.344,14.436C377.165,511.559,375.43,511.965,373.712,511.965z"/>
</g>
<path style="fill:#434A54;" d="M223.751,469.279c-5.922,0-10.719-4.75-10.719-10.654V223.941c0-5.89,4.797-10.656,10.719-10.656
	c5.905,0,10.702,4.766,10.702,10.656v234.684C234.453,464.529,229.656,469.279,223.751,469.279z"/>
<path style="fill:#ED5564;" d="M337.354,110.807C307.012,80.59,266.67,63.934,223.75,63.934s-83.277,16.655-113.619,46.873
	c-30.343,30.217-47.045,70.403-47.045,113.135c0,42.748,16.702,82.941,47.045,113.158c30.342,30.217,70.699,46.873,113.619,46.873
	s83.262-16.656,113.604-46.873s47.061-70.41,47.061-113.158C384.415,181.209,367.696,141.024,337.354,110.807z"/>
<path style="fill:#E6E9ED;" d="M223.751,117.275c-59.075,0-107.12,47.857-107.12,106.667c0,58.816,48.045,106.689,107.12,106.689
	c59.06,0,107.119-47.873,107.119-106.689C330.87,165.132,282.81,117.275,223.751,117.275z"/>
<path style="fill:#ED5564;" d="M223.751,170.866c-29.39,0-53.31,23.812-53.31,53.076c0,29.28,23.92,53.098,53.31,53.098
	c29.389,0,53.294-23.818,53.294-53.098C277.045,194.677,253.139,170.866,223.751,170.866z"/>
<polygon style="fill:#FFCE54;" points="388.289,0 312.558,75.417 321.213,114.212 333.76,126.712 373.149,135.758 448.879,60.34 "/>
<path style="fill:#434A54;" d="M224.001,234.613c-2.734,0-5.469-1.031-7.578-3.125c-4.172-4.156-4.172-10.921,0-15.077
	l199.818-198.99c4.188-4.171,10.968-4.171,15.155,0c4.171,4.156,4.171,10.921,0,15.078L231.578,231.488
	C229.484,233.582,226.751,234.613,224.001,234.613z"/>
<g>
</g>
<g>
</g>
<g>
</g>
<g>
</g>
<g>
</g>
<g>
</g>
<g>
</g>
<g>
</g>
<g>
</g>
<g>
</g>
<g>
</g>
<g>
</g>
<g>
</g>
<g>
</g>
<g>
</g>
</svg>
